{"title":"Plan B - Fanatica Sensual (2015.Reggaeton)","uid":12501591,"size":66624836,"categoryP":"video","categoryS":"music_videos","magnet":"?xt=urn:btih:81af2d718271319100038aa8bc3455e21869118b&amp;dn=Plan+B+-+Fanatica+Sensual+%282015.Reggaeton%29&amp;tr=udp%3A%2F%2Ftracker.leechers-paradise.org%3A6969&amp;tr=udp%3A%2F%2Fzer0day.ch%3A1337&amp;tr=udp%3A%2F%2Fopen.demonii.com%3A1337&amp;tr=udp%3A%2F%2Ftracker.coppersurfer.tk%3A6969&amp;tr=udp%3A%2F%2Fexodus.desync.com%3A6969","seeders":4,"leechers":0,"uploader":"MeRaDil","files":1,"time":1443376393,"description":"PLAN B - FANATICA SENSUAL\r\n\r\n \nhttp://gifyu.com/images/PlanB.png\r\n \nhttps://thepiratebay.mn/user/MeRaDil\r\n\r\n\r\nMEDIA INFO\r\nGeneral\r\nPlan B - Fanatica Sensual\r\nFormat                                   : MPEG-4\r\nFormat profile                           : Base Media\r\nCodec ID                                 : isom\r\nFile size                                : 63.5 MiB\r\nDuration                                 : 4mn 0s\r\nOverall bit rate                         : 2 212 Kbps\r\nMusicVid name                            : Fanatica Sensual\r\nPerformer                                : Plan B\r\nGenre                                    : Reggaeton\r\nContentType                              : Music Video\r\nRecorded date                            : 2015\r\nRating                                   : ***\r\nMake                                     : MeRaDil\r\nRelease date                             : Puerto Rico - february 3 - 2015\r\n\r\nVideo\r\nID                                       : 1\r\nFormat                                   : AVC\r\nFormat/Info                              : Advanced Video Codec\r\nFormat profile                           :   \r\nFormat settings, CABAC                   : Yes\r\nFormat settings, ReFrames                : 3 frames\r\nCodec ID                                 : avc1\r\nCodec ID/Info                            : Advanced Video Coding\r\nDuration                                 : 4mn 0s\r\nBit rate                                 : 1 950 Kbps\r\nWidth                                    : 1 920 pixels\r\nHeight                                   : 1 080 pixels\r\nDisplay aspect ratio                     : 16:9\r\nFrame rate mode                          : Variable\r\nFrame rate                               : 23.976 fps\r\nMinimum frame rate                       : 23.974 fps\r\nMaximum frame rate                       : 23.981 fps\r\nColor space                              : YUV\r\nChroma subsampling                       : 4:2:0\r\nBit depth                                : 8 bits\r\nScan type                                : Progressive\r\nBits/(Pixel*Frame)                       : 0.039\r\nStream size                              : 56.0 MiB (88%)\r\n\r\nAudio\r\nID                                       : 2\r\nFormat                                   : AAC\r\nFormat/Info                              : Advanced Audio Codec\r\nFormat profile                           : LC\r\nCodec ID                                 : 40\r\nDuration                                 : 4mn 0s\r\nBit rate mode                            : Constant\r\nBit rate                                 : 256 Kbps\r\nChannel(s)                               : 2 channels\r\nChannel positions                        : Front: L R\r\nSampling rate                            : 44.1 KHz\r\nCompression mode                         : Lossy\r\nStream size                              : 7.35 MiB (12%)\r\n\r\nPlan B * Reggaeton/Latin * Promo","torrent":{"xt":"urn:btih:81af2d718271319100038aa8bc3455e21869118b","amp;dn":"Plan+B+-+Fanatica+Sensual+%282015.Reggaeton%29","amp;tr":["udp%3A%2F%2Ftracker.leechers-paradise.org%3A6969","udp%3A%2F%2Fzer0day.ch%3A1337","udp%3A%2F%2Fopen.demonii.com%3A1337","udp%3A%2F%2Ftracker.coppersurfer.tk%3A6969","udp%3A%2F%2Fexodus.desync.com%3A6969"],"infoHash":"81af2d718271319100038aa8bc3455e21869118b","infoHashBuffer":{"type":"Buffer","data":[129,175,45,113,130,113,49,145,0,3,138,168,188,52,85,226,24,105,17,139]},"announce":[],"urlList":[]}}